custom-analysis
version=1
nRows=15
nColumns=42
inDegrees=no

This file contains tibia displacement and acting force.

Units are S.I. units (seconds, meters, Newtons, ...)
Angles are in degrees.

endheader
time	APT	SIT	knee_angle	aACL_R_force	pACL_R_force	aPCL_R_force	pPCL_R_force	aMCL_R_force	mMCL_R_force	pMCL_R_force	aLCL_R_force	mLCL_R_force	pLCL_R_force	aACL_R_length	pACL_R_length	aPCL_R_length	pPCL_R_length	aMCL_R_length	mMCL_R_length	pMCL_R_length	aLCL_R_length	mLCL_R_length	pLCL_R_length	aACL_R_strain	pACL_R_strain	aPCL_R_strain	pPCL_R_strain	aMCL_R_strain	mMCL_R_strain	pMCL_R_strain	aLCL_R_strain	mLCL_R_strain	pLCL_R_strain	femur_lat_meniscii_force_r	femur_lat_meniscii_torque_r	femur_med_meniscii_force_r	femur_med_meniscii_torque_r	femur_lat_tibia_force_r	femur_lat_tibia_torque_r	femur_med_tibia_force_r	femur_med_tibia_torque_r
      0.45984359	      0.00186047	     -0.00027523	     30.00011112	     67.36448331	     49.29247816	     97.18491286	     60.07031781	      0.00000000	      0.00000000	      0.00000000	      5.04217309	      0.00000000	      0.00000000	      0.03393553	      0.02717615	      0.03226205	      0.03078469	      0.05678027	      0.05867984	      0.05774596	      0.05714941	      0.05388507	      0.05016790	      0.09450027	      0.07166981	      0.03752164	      0.02316204	     -0.02148541	     -0.01862505	     -0.04910484	      0.02094085	     -0.04321001	     -0.04154918	    141.42718937	     43.46567485	    125.18658332	     42.81630260	      0.00000000	      0.00000000	     45.64967613	      1.10724025
      0.46249519	      0.00185932	     -0.00027656	     30.00011112	     67.16976195	     49.11785324	     97.02112988	     59.02554066	      0.00000000	      0.00000000	      0.00000000	      3.76222194	      0.00000000	      0.00000000	      0.03393763	      0.02717885	      0.03226400	      0.03078614	      0.05677827	      0.05867783	      0.05774394	      0.05715557	      0.05389127	      0.05017408	      0.09456819	      0.07177611	      0.03758441	      0.02321011	     -0.02151976	     -0.01865867	     -0.04913805	      0.02105091	     -0.04309999	     -0.04143111	    143.52892635	     44.13020810	    128.32843808	     43.91974717	      0.00000000	      0.00000000	     46.45241077	      1.12708121
      0.46514679	      0.00185884	     -0.00027617	     30.00011112	     67.42582588	     49.42840049	     97.39067841	     59.90184385	      0.00000000	      0.00000000	      0.00000000	      4.58908204	      0.00000000	      0.00000000	      0.03393870	      0.02718044	      0.03226408	      0.03078575	      0.05677476	      0.05867429	      0.05774042	      0.05715962	      0.05389537	      0.05017816	      0.09460272	      0.07183892	      0.03758704	      0.02319701	     -0.02158024	     -0.01871786	     -0.04919610	      0.02112331	     -0.04302724	     -0.04135325	    139.72831121	     42.95569969	    127.53453046	     43.62141247	      0.00000000	      0.00000000	     46.90617806	      1.13789255
      0.46779839	      0.00185787	     -0.00027703	     30.00011112	     67.34338102	     49.36632798	     97.38286478	     59.43267480	      0.00000000	      0.00000000	      0.00000000	      3.92033657	      0.00000000	      0.00000000	      0.03394041	      0.02718268	      0.03226547	      0.03078669	      0.05677266	      0.05867218	      0.05773830	      0.05716473	      0.05390050	      0.05018328	      0.09465784	      0.07192733	      0.03763178	      0.02322828	     -0.02161643	     -0.01875324	     -0.04923104	      0.02121446	     -0.04293610	     -0.04125551	    140.26940043	     43.13350792	    129.52320020	     44.28413994	      0.00000000	      0.00000000	     47.52192308	      1.15283015
      0.47107678	      0.00185738	     -0.00027681	     30.00011112	     67.58883154	     49.65835798	     97.76731175	     60.28943967	      0.00000000	      0.00000000	      0.00000000	      4.67534802	      0.00000000	      0.00000000	      0.03394163	      0.02718444	      0.03226577	      0.03078648	      0.05676917	      0.05866865	      0.05773479	      0.05716927	      0.05390509	      0.05018785	      0.09469721	      0.07199645	      0.03764138	      0.02322153	     -0.02167670	     -0.01881229	     -0.04928885	      0.02129567	     -0.04285450	     -0.04116810	    136.70726665	     42.03815051	    128.81248619	     44.00897475	      0.00000000	      0.00000000	     47.94081254	      1.16264521
      0.47383874	      0.00185654	     -0.00027820	     30.00011112	     67.40049734	     49.47111859	     97.62575674	     59.35828510	      0.00000000	      0.00000000	      0.00000000	      3.48226641	      0.00000000	      0.00000000	      0.03394347	      0.02718670	      0.03226761	      0.03078794	      0.05676804	      0.05866750	      0.05773364	      0.05717438	      0.05391023	      0.05019298	      0.09475643	      0.07208570	      0.03770048	      0.02326991	     -0.02169615	     -0.01883140	     -0.04930769	      0.02138693	     -0.04276323	     -0.04107010	    138.85365279	     42.72028371	    131.67436555	     44.97891419	      0.00000000	      0.00000000	     48.47490529	      1.17518012
      0.47660069	      0.00185661	     -0.00027797	     30.00011112	     67.65526685	     49.75911594	     97.97415861	     60.22997250	      0.00000000	      0.00000000	      0.00000000	      4.28327132	      0.00000000	      0.00000000	      0.03394431	      0.02718783	      0.03226761	      0.03078761	      0.05676564	      0.05866508	      0.05773125	      0.05717739	      0.05391330	      0.05019603	      0.09478356	      0.07213044	      0.03770055	      0.02325901	     -0.02173741	     -0.01887199	     -0.04934713	      0.02144077	     -0.04270887	     -0.04101185	    135.67261952	     41.72465067	    130.54086075	     44.58176201	      0.00000000	      0.00000000	     48.60987705	      1.17842687
      0.47936264	      0.00185634	     -0.00027912	     30.00011112	     67.54829398	     49.65534692	     97.90129275	     59.63053740	      0.00000000	      0.00000000	      0.00000000	      3.44759055	      0.00000000	      0.00000000	      0.03394591	      0.02718971	      0.03226895	      0.03078866	      0.05676486	      0.05866427	      0.05773046	      0.05718145	      0.05391739	      0.05020011	      0.09483513	      0.07220447	      0.03774373	      0.02329399	     -0.02175093	     -0.01888546	     -0.04936015	      0.02151323	     -0.04263618	     -0.04093382	    136.98021308	     42.14140808	    132.45479747	     45.23388328	      0.00000000	      0.00000000	     48.91999060	      1.18606872
      0.48212460	      0.00185662	     -0.00027920	     30.00011112	     67.70743219	     49.83787633	     98.13394256	     60.17748513	      0.00000000	      0.00000000	      0.00000000	      3.87063818	      0.00000000	      0.00000000	      0.03394680	      0.02719079	      0.03226908	      0.03078855	      0.05676332	      0.05866271	      0.05772892	      0.05718395	      0.05391994	      0.05020265	      0.09486380	      0.07224695	      0.03774787	      0.02329021	     -0.02177740	     -0.01891164	     -0.04938541	      0.02155797	     -0.04259093	     -0.04088533	    135.00907232	     41.53449161	    131.77329257	     44.98609872	      0.00000000	      0.00000000	     48.97579652	      1.18737400
      0.48559913	      0.00185646	     -0.00028067	     30.00011112	     67.53425412	     49.65978699	     97.99434843	     59.35480838	      0.00000000	      0.00000000	      0.00000000	      2.73054976	      0.00000000	      0.00000000	      0.03394857	      0.02719279	      0.03227063	      0.03078985	      0.05676311	      0.05866248	      0.05772871	      0.05718796	      0.05392398	      0.05020668	      0.09492087	      0.07232569	      0.03779770	      0.02333346	     -0.02178104	     -0.01891549	     -0.04938898	      0.02162950	     -0.04251920	     -0.04080830	    137.14230866	     42.21525089	    134.00853438	     45.75317850	      0.00000000	      0.00000000	     49.21381882	      1.19305898
      0.48834333	      0.00185707	     -0.00028013	     30.00011112	     67.80616853	     49.95803949	     98.36220227	     60.48534437	      0.00000000	      0.00000000	      0.00000000	      3.79190684	      0.00000000	      0.00000000	      0.03394883	      0.02719311	      0.03227000	      0.03078908	      0.05676163	      0.05866096	      0.05772723	      0.05718885	      0.05392491	      0.05020760	      0.09492937	      0.07233868	      0.03777737	      0.02330777	     -0.02180664	     -0.01894082	     -0.04941332	      0.02164538	     -0.04250273	     -0.04079075	    133.78278267	     41.16292678	    131.79593188	     44.98082023	      0.00000000	      0.00000000	     49.04479702	      1.18886042
      0.49108754	      0.00185701	     -0.00028124	     30.00011112	     67.65501514	     49.79498052	     98.21814731	     59.79561505	      0.00000000	      0.00000000	      0.00000000	      2.85870278	      0.00000000	      0.00000000	      0.03394993	      0.02719430	      0.03227110	      0.03079008	      0.05676202	      0.05866135	      0.05772762	      0.05719108	      0.05392716	      0.05020985	      0.09496477	      0.07238527	      0.03781285	      0.02334097	     -0.02179981	     -0.01893434	     -0.04940683	      0.02168530	     -0.04246273	     -0.04074775	    135.78583590	     41.79130603	    133.39351078	     45.53631885	      0.00000000	      0.00000000	     49.11733101	      1.19068050
      0.49383174	      0.00185750	     -0.00028122	     30.00011112	     67.77494544	     49.92164447	     98.37931437	     60.26922822	      0.00000000	      0.00000000	      0.00000000	      3.21953437	      0.00000000	      0.00000000	      0.03395027	      0.02719463	      0.03227093	      0.03078985	      0.05676161	      0.05866092	      0.05772721	      0.05719170	      0.05392780	      0.05021049	      0.09497578	      0.07239853	      0.03780743	      0.02333350	     -0.02180699	     -0.01894161	     -0.04941359	      0.02169627	     -0.04245138	     -0.04073562	    134.52348956	     41.39244340	    132.36129820	     45.18227664	      0.00000000	      0.00000000	     48.94138998	      1.18638469
      0.49746516	      0.00185775	     -0.00028238	     30.00011112	     67.62936787	     49.75663218	     98.23636914	     59.64538229	      0.00000000	      0.00000000	      0.00000000	      2.31578277	      0.00000000	      0.00000000	      0.03395126	      0.02719559	      0.03227188	      0.03079078	      0.05676261	      0.05866191	      0.05772822	      0.05719313	      0.05392925	      0.05021194	      0.09500778	      0.07243639	      0.03783776	      0.02336439	     -0.02178965	     -0.01892492	     -0.04939699	      0.02172186	     -0.04242565	     -0.04070794	    136.62801227	     42.05143921	    133.50180864	     45.59041563	      0.00000000	      0.00000000	     48.81208952	      1.18332419
      0.50109858	      0.00185892	     -0.00028144	     30.00011112	     67.89727437	     50.03590463	     98.54548471	     60.86222998	      0.00000000	      0.00000000	      0.00000000	      3.49183373	      0.00000000	      0.00000000	      0.03395085	      0.02719500	      0.03227052	      0.03078949	      0.05676206	      0.05866134	      0.05772768	      0.05719165	      0.05392780	      0.05021048	      0.09499444	      0.07241313	      0.03779417	      0.02332148	     -0.02179915	     -0.01893453	     -0.04940580	      0.02169552	     -0.04245137	     -0.04073569	    133.60766776	     41.10855784	    130.62633077	     44.60388460	      0.00000000	      0.00000000	     48.40588627	      1.17336248
